<svg width="95" height="51" viewBox="0 0 95 51" fill="none" xmlns="http://www.w3.org/2000/svg">
<rect width="95" height="33" rx="16" fill="#EF3959"/>
<path d="M22.4562 14.7464C22.4165 14.3454 22.2458 14.0339 21.9442 13.8118C21.6425 13.5897 21.2332 13.4787 20.7162 13.4787C20.3648 13.4787 20.0682 13.5284 19.8263 13.6278C19.5843 13.724 19.3987 13.8582 19.2694 14.0305C19.1435 14.2029 19.0805 14.3984 19.0805 14.6172C19.0739 14.7995 19.112 14.9586 19.1949 15.0945C19.281 15.2304 19.3987 15.348 19.5479 15.4474C19.697 15.5436 19.8693 15.6281 20.0649 15.701C20.2604 15.7706 20.4693 15.8303 20.6913 15.88L21.6061 16.0987C22.0502 16.1982 22.4579 16.3307 22.8291 16.4964C23.2003 16.6622 23.5218 16.866 23.7936 17.108C24.0654 17.3499 24.2758 17.6349 24.425 17.9631C24.5774 18.2912 24.6553 18.6674 24.6586 19.0916C24.6553 19.7147 24.4962 20.255 24.1814 20.7124C23.8698 21.1664 23.4191 21.5194 22.8291 21.7713C22.2425 22.0199 21.5348 22.1442 20.7062 22.1442C19.8843 22.1442 19.1684 22.0182 18.5585 21.7663C17.952 21.5144 17.478 21.1416 17.1366 20.6477C16.7986 20.1506 16.6212 19.5357 16.6047 18.8033H18.6878C18.711 19.1446 18.8087 19.4297 18.9811 19.6584C19.1568 19.8838 19.3904 20.0545 19.6821 20.1705C19.9771 20.2831 20.3102 20.3395 20.6814 20.3395C21.046 20.3395 21.3625 20.2865 21.6309 20.1804C21.9027 20.0743 22.1132 19.9268 22.2623 19.7379C22.4115 19.549 22.4861 19.3319 22.4861 19.0866C22.4861 18.858 22.4181 18.6657 22.2822 18.5099C22.1497 18.3542 21.9541 18.2216 21.6956 18.1122C21.4404 18.0028 21.1272 17.9034 20.7559 17.8139L19.6473 17.5355C18.7889 17.3267 18.1111 17.0002 17.6139 16.5561C17.1167 16.112 16.8698 15.5137 16.8731 14.7614C16.8698 14.1449 17.0339 13.6063 17.3653 13.1456C17.7001 12.6849 18.1591 12.3253 18.7425 12.0668C19.3258 11.8082 19.9887 11.679 20.7311 11.679C21.4868 11.679 22.1463 11.8082 22.7098 12.0668C23.2765 12.3253 23.7174 12.6849 24.0322 13.1456C24.3471 13.6063 24.5095 14.1399 24.5194 14.7464H22.4562ZM28.2444 22.1442C27.7572 22.1442 27.323 22.0597 26.9419 21.8906C26.5607 21.7183 26.2591 21.4647 26.037 21.13C25.8183 20.7919 25.7089 20.371 25.7089 19.8672C25.7089 19.4429 25.7868 19.0866 25.9426 18.7983C26.0983 18.5099 26.3105 18.2779 26.5789 18.1023C26.8474 17.9266 27.1523 17.794 27.4937 17.7045C27.8384 17.6151 28.1997 17.5521 28.5775 17.5156C29.0216 17.4692 29.3796 17.4261 29.6514 17.3864C29.9231 17.3433 30.1204 17.2803 30.243 17.1974C30.3656 17.1146 30.4269 16.992 30.4269 16.8295V16.7997C30.4269 16.4848 30.3275 16.2412 30.1286 16.0689C29.9331 15.8965 29.6547 15.8104 29.2934 15.8104C28.9123 15.8104 28.609 15.8949 28.3836 16.0639C28.1582 16.2296 28.0091 16.4384 27.9362 16.6903L25.9774 16.5312C26.0768 16.0672 26.2723 15.6662 26.564 15.3281C26.8557 14.9867 27.2319 14.7249 27.6926 14.5426C28.1566 14.357 28.6935 14.2642 29.3034 14.2642C29.7276 14.2642 30.1336 14.3139 30.5214 14.4134C30.9125 14.5128 31.2588 14.6669 31.5605 14.8757C31.8654 15.0845 32.1057 15.353 32.2813 15.6811C32.457 16.0059 32.5448 16.3954 32.5448 16.8494V22H30.5363V20.9411H30.4767C30.354 21.1797 30.19 21.3902 29.9845 21.5724C29.779 21.7514 29.532 21.8923 29.2437 21.995C28.9553 22.0945 28.6222 22.1442 28.2444 22.1442ZM28.8509 20.6825C29.1625 20.6825 29.4376 20.6212 29.6762 20.4986C29.9149 20.3726 30.1021 20.2036 30.238 19.9915C30.3739 19.7794 30.4419 19.5391 30.4419 19.2706V18.4602C30.3756 18.5033 30.2844 18.5431 30.1684 18.5795C30.0557 18.6127 29.9281 18.6442 29.7856 18.674C29.6431 18.7005 29.5006 18.7254 29.358 18.7486C29.2155 18.7685 29.0863 18.7867 28.9703 18.8033C28.7217 18.8397 28.5046 18.8977 28.319 18.9773C28.1334 19.0568 27.9892 19.1645 27.8865 19.3004C27.7837 19.433 27.7323 19.5987 27.7323 19.7976C27.7323 20.0859 27.8367 20.3063 28.0455 20.4588C28.2577 20.608 28.5261 20.6825 28.8509 20.6825ZM41.0338 14.3636L38.3641 22H35.9777L33.308 14.3636H35.5452L37.1311 19.8274H37.2107L38.7916 14.3636H41.0338ZM45.3517 22.1491C44.5661 22.1491 43.89 21.9901 43.3232 21.6719C42.7598 21.3504 42.3256 20.8963 42.0207 20.3097C41.7158 19.7197 41.5633 19.022 41.5633 18.2166C41.5633 17.4311 41.7158 16.7417 42.0207 16.1484C42.3256 15.5552 42.7548 15.0928 43.3083 14.7614C43.8651 14.4299 44.5181 14.2642 45.2671 14.2642C45.7709 14.2642 46.2399 14.3454 46.6741 14.5078C47.1116 14.6669 47.4927 14.9072 47.8176 15.2287C48.1457 15.5502 48.4009 15.9545 48.5832 16.4418C48.7655 16.9257 48.8566 17.4924 48.8566 18.142V18.7237H42.4085V17.4112H46.863C46.863 17.1063 46.7967 16.8362 46.6642 16.6009C46.5316 16.3655 46.3476 16.1816 46.1123 16.049C45.8803 15.9131 45.6102 15.8452 45.3019 15.8452C44.9804 15.8452 44.6954 15.9197 44.4468 16.0689C44.2016 16.2147 44.0093 16.4119 43.8701 16.6605C43.7309 16.9058 43.6597 17.1792 43.6563 17.4808V18.7287C43.6563 19.1065 43.7259 19.433 43.8651 19.7081C44.0077 19.9832 44.2082 20.1953 44.4667 20.3445C44.7252 20.4936 45.0318 20.5682 45.3865 20.5682C45.6218 20.5682 45.8372 20.535 46.0328 20.4688C46.2283 20.4025 46.3957 20.303 46.5349 20.1705C46.6741 20.0379 46.7802 19.8755 46.8531 19.6832L48.8119 19.8125C48.7124 20.2831 48.5086 20.6941 48.2004 21.0455C47.8954 21.3935 47.501 21.6652 47.0171 21.8608C46.5365 22.053 45.9814 22.1491 45.3517 22.1491ZM53.4591 22V20.4489L57.0834 17.093C57.3916 16.7947 57.6501 16.5263 57.8589 16.2876C58.0711 16.049 58.2318 15.8153 58.3412 15.5866C58.4506 15.3546 58.5052 15.1044 58.5052 14.8359C58.5052 14.5376 58.4373 14.2808 58.3014 14.0653C58.1655 13.8466 57.9799 13.6792 57.7446 13.5632C57.5093 13.4439 57.2425 13.3842 56.9442 13.3842C56.6326 13.3842 56.3608 13.4472 56.1288 13.5732C55.8968 13.6991 55.7178 13.8797 55.5919 14.1151C55.4659 14.3504 55.403 14.6304 55.403 14.9553H53.3596C53.3596 14.2891 53.5104 13.7107 53.8121 13.2202C54.1137 12.7296 54.5363 12.3501 55.0798 12.0817C55.6234 11.8132 56.2498 11.679 56.9591 11.679C57.6882 11.679 58.3229 11.8082 58.8632 12.0668C59.4068 12.322 59.8293 12.6766 60.1309 13.1307C60.4326 13.5848 60.5834 14.1051 60.5834 14.6918C60.5834 15.0762 60.5071 15.4557 60.3547 15.8303C60.2055 16.2048 59.9387 16.6207 59.5542 17.0781C59.1698 17.5322 58.6279 18.0774 57.9285 18.7138L56.442 20.1705V20.2401H60.7176V22H53.4591ZM62.6801 22L66.901 13.6477V13.5781H61.9841V11.8182H69.1283V13.603L64.9024 22H62.6801ZM74.0241 23.2727V10.5455H74.8394V23.2727H74.0241ZM76.1867 14.7464C76.1469 14.3454 75.9762 14.0339 75.6746 13.8118C75.373 13.5897 74.9637 13.4787 74.4466 13.4787C74.0953 13.4787 73.7987 13.5284 73.5567 13.6278C73.3148 13.724 73.1292 13.8582 72.9999 14.0305C72.874 14.2029 72.811 14.3984 72.811 14.6172C72.8044 14.7995 72.8425 14.9586 72.9253 15.0945C73.0115 15.2304 73.1292 15.348 73.2783 15.4474C73.4275 15.5436 73.5998 15.6281 73.7954 15.701C73.9909 15.7706 74.1997 15.8303 74.4218 15.88L75.3366 16.0987C75.7807 16.1982 76.1884 16.3307 76.5596 16.4964C76.9308 16.6622 77.2523 16.866 77.5241 17.108C77.7958 17.3499 78.0063 17.6349 78.1555 17.9631C78.3079 18.2912 78.3858 18.6674 78.3891 19.0916C78.3858 19.7147 78.2267 20.255 77.9118 20.7124C77.6003 21.1664 77.1495 21.5194 76.5596 21.7713C75.9729 22.0199 75.2653 22.1442 74.4367 22.1442C73.6147 22.1442 72.8988 22.0182 72.289 21.7663C71.6824 21.5144 71.2085 21.1416 70.8671 20.6477C70.529 20.1506 70.3517 19.5357 70.3351 18.8033H72.4182C72.4414 19.1446 72.5392 19.4297 72.7116 19.6584C72.8872 19.8838 73.1209 20.0545 73.4126 20.1705C73.7075 20.2831 74.0406 20.3395 74.4118 20.3395C74.7764 20.3395 75.093 20.2865 75.3614 20.1804C75.6332 20.0743 75.8437 19.9268 75.9928 19.7379C76.142 19.549 76.2165 19.3319 76.2165 19.0866C76.2165 18.858 76.1486 18.6657 76.0127 18.5099C75.8801 18.3542 75.6846 18.2216 75.426 18.1122C75.1708 18.0028 74.8576 17.9034 74.4864 17.8139L73.3778 17.5355C72.5193 17.3267 71.8415 17.0002 71.3444 16.5561C70.8472 16.112 70.6003 15.5137 70.6036 14.7614C70.6003 14.1449 70.7644 13.6063 71.0958 13.1456C71.4305 12.6849 71.8896 12.3253 72.4729 12.0668C73.0563 11.8082 73.7191 11.679 74.4616 11.679C75.2172 11.679 75.8768 11.8082 76.4403 12.0668C77.007 12.3253 77.4478 12.6849 77.7627 13.1456C78.0776 13.6063 78.24 14.1399 78.2499 14.7464H76.1867Z" fill="white"/>
<path d="M31 33.0004L47 33.0008L23 48.0002L31 33.0004Z" fill="#EF3959"/>
</svg>
